<mxfile host="Electron" modified="2021-09-06T15:58:50.683Z" agent="5.0 (Macintosh; Intel Mac OS X 11_5_2) AppleWebKit/537.36 (KHTML, like Gecko) draw.io/14.9.6 Chrome/89.0.4389.128 Electron/12.0.16 Safari/537.36" etag="ZP3igaQib1Wo9mBKCmXa" compressed="false" version="14.9.6" type="device">
  <diagram id="H2GnuD84dtIOk1wceh6G" name="Page-1">
    <mxGraphModel dx="922" dy="710" grid="1" gridSize="10" guides="1" tooltips="1" connect="1" arrows="1" fold="1" page="1" pageScale="1" pageWidth="827" pageHeight="1169" math="0" shadow="0">
      <root>
        <mxCell id="0" />
        <mxCell id="1" parent="0" />
        <mxCell id="l3x3Y-bJXq9WyvKC18MW-64" value="ulthar&#xa;cloud server at Hetzner HEL" style="swimlane;fillColor=#dae8fc;strokeColor=#6c8ebf;strokeWidth=5;startSize=80;fontFamily=Ubuntu;fontSize=16;fontStyle=1" vertex="1" parent="1">
          <mxGeometry x="961" y="360" width="600" height="360" as="geometry">
            <mxRectangle x="200" y="250" width="260" height="23" as="alternateBounds" />
          </mxGeometry>
        </mxCell>
        <mxCell id="l3x3Y-bJXq9WyvKC18MW-65" value="" style="shape=mxgraph.cisco.servers.standard_host;html=1;pointerEvents=1;dashed=0;fillColor=#036897;strokeColor=#ffffff;strokeWidth=2;verticalLabelPosition=bottom;verticalAlign=top;align=center;outlineConnect=0;fontSize=16;fontStyle=1" vertex="1" parent="l3x3Y-bJXq9WyvKC18MW-64">
          <mxGeometry x="540" y="10" width="43" height="62" as="geometry" />
        </mxCell>
        <mxCell id="l3x3Y-bJXq9WyvKC18MW-66" value="webd03&#xa;LXD container" style="swimlane;fillColor=#e1d5e7;strokeColor=#9673a6;strokeWidth=5;startSize=80;fontFamily=Ubuntu;fontSize=16;fontStyle=1" vertex="1" parent="l3x3Y-bJXq9WyvKC18MW-64">
          <mxGeometry x="280" y="120" width="280" height="200" as="geometry">
            <mxRectangle x="200" y="250" width="260" height="23" as="alternateBounds" />
          </mxGeometry>
        </mxCell>
        <mxCell id="l3x3Y-bJXq9WyvKC18MW-68" value="" style="html=1;dashed=0;whitespace=wrap;fillColor=#2875E2;strokeColor=#ffffff;points=[[0.005,0.63,0],[0.1,0.2,0],[0.9,0.2,0],[0.5,0,0],[0.995,0.63,0],[0.72,0.99,0],[0.5,1,0],[0.28,0.99,0]];shape=mxgraph.kubernetes.icon;prIcon=pod;fontFamily=Ubuntu;fontSize=16;fontStyle=1" vertex="1" parent="l3x3Y-bJXq9WyvKC18MW-66">
          <mxGeometry x="13" y="16" width="50" height="48" as="geometry" />
        </mxCell>
        <mxCell id="l3x3Y-bJXq9WyvKC18MW-69" value="unison&lt;br style=&quot;font-size: 16px;&quot;&gt;service" style="shape=mxgraph.cisco.servers.fileserver;html=1;pointerEvents=1;dashed=0;fillColor=#036897;strokeColor=#ffffff;strokeWidth=2;verticalLabelPosition=bottom;verticalAlign=top;align=center;outlineConnect=0;fontFamily=Ubuntu;fontStyle=3;fontSize=16;" vertex="1" parent="l3x3Y-bJXq9WyvKC18MW-66">
          <mxGeometry x="179" y="90" width="43" height="62" as="geometry" />
        </mxCell>
        <mxCell id="l3x3Y-bJXq9WyvKC18MW-67" value="nginx+php" style="shape=mxgraph.cisco.servers.www_server;html=1;pointerEvents=1;dashed=0;fillColor=#036897;strokeColor=#ffffff;strokeWidth=2;verticalLabelPosition=bottom;verticalAlign=top;align=center;outlineConnect=0;fontFamily=Ubuntu;fontStyle=3;fontSize=16;" vertex="1" parent="l3x3Y-bJXq9WyvKC18MW-66">
          <mxGeometry x="39" y="90" width="66" height="67" as="geometry" />
        </mxCell>
        <mxCell id="l3x3Y-bJXq9WyvKC18MW-107" value="&lt;p class=&quot;p1&quot; style=&quot;margin: 0px; font-stretch: normal; line-height: normal; font-size: 16px;&quot;&gt;&lt;br style=&quot;font-size: 16px;&quot;&gt;&lt;/p&gt;" style="pointerEvents=1;shadow=0;dashed=0;html=1;strokeColor=none;fillColor=#505050;labelPosition=center;verticalLabelPosition=bottom;verticalAlign=top;outlineConnect=0;align=center;shape=mxgraph.office.devices.nic;fontFamily=Ubuntu;fontStyle=1;fontSize=16;" vertex="1" parent="l3x3Y-bJXq9WyvKC18MW-64">
          <mxGeometry x="29" y="120" width="57" height="38" as="geometry" />
        </mxCell>
        <mxCell id="l3x3Y-bJXq9WyvKC18MW-131" value="&lt;meta charset=&quot;utf-8&quot; style=&quot;font-size: 16px;&quot;&gt;&lt;span style=&quot;color: rgb(0, 0, 0); font-family: &amp;quot;ubuntu mono&amp;quot;; font-size: 16px; font-style: normal; letter-spacing: normal; text-align: center; text-indent: 0px; text-transform: none; word-spacing: 0px; background-color: rgb(248, 249, 250); display: inline; float: none;&quot;&gt;65.21.182.235&lt;/span&gt;" style="text;html=1;strokeColor=none;fillColor=none;align=center;verticalAlign=middle;whiteSpace=wrap;rounded=0;fontFamily=Ubuntu;fontSize=16;fontStyle=1" vertex="1" parent="l3x3Y-bJXq9WyvKC18MW-64">
          <mxGeometry x="129" y="129" width="40" height="20" as="geometry" />
        </mxCell>
        <mxCell id="l3x3Y-bJXq9WyvKC18MW-79" style="edgeStyle=orthogonalEdgeStyle;rounded=0;orthogonalLoop=1;jettySize=auto;html=1;entryX=0.13;entryY=0.5;entryDx=0;entryDy=0;entryPerimeter=0;fontFamily=Ubuntu;strokeWidth=3;fillColor=#d5e8d4;strokeColor=#82b366;fontSize=16;fontStyle=1" edge="1" parent="l3x3Y-bJXq9WyvKC18MW-64" source="l3x3Y-bJXq9WyvKC18MW-107" target="l3x3Y-bJXq9WyvKC18MW-67">
          <mxGeometry relative="1" as="geometry">
            <Array as="points">
              <mxPoint x="59" y="244" />
            </Array>
            <mxPoint x="520" y="340" as="targetPoint" />
          </mxGeometry>
        </mxCell>
        <mxCell id="l3x3Y-bJXq9WyvKC18MW-80" value="NAT" style="edgeLabel;html=1;align=center;verticalAlign=middle;resizable=0;points=[];fontFamily=Ubuntu;fontSize=16;fontStyle=1;fontColor=#82B366;" vertex="1" connectable="0" parent="l3x3Y-bJXq9WyvKC18MW-79">
          <mxGeometry x="0.0714" y="-2" relative="1" as="geometry">
            <mxPoint x="8" y="-2" as="offset" />
          </mxGeometry>
        </mxCell>
        <mxCell id="l3x3Y-bJXq9WyvKC18MW-125" style="edgeStyle=orthogonalEdgeStyle;rounded=0;orthogonalLoop=1;jettySize=auto;html=1;exitX=1;exitY=0.5;exitDx=0;exitDy=0;fontFamily=Ubuntu;fontSize=16;startArrow=none;startFill=0;endArrow=classic;endFill=1;strokeWidth=3;fillColor=#d5e8d4;strokeColor=#82b366;entryX=0;entryY=0.5;entryDx=0;entryDy=0;fontStyle=1" edge="1" parent="1" source="l3x3Y-bJXq9WyvKC18MW-126" target="l3x3Y-bJXq9WyvKC18MW-127">
          <mxGeometry relative="1" as="geometry">
            <mxPoint x="1129" y="481" as="targetPoint" />
          </mxGeometry>
        </mxCell>
        <mxCell id="l3x3Y-bJXq9WyvKC18MW-126" value="CNAMEs" style="swimlane;fontFamily=Ubuntu;fontSize=16;strokeWidth=2;startSize=60;fillColor=#ffe6cc;strokeColor=#d79b00;fontStyle=1" vertex="1" parent="1">
          <mxGeometry x="100" y="40" width="320" height="200" as="geometry" />
        </mxCell>
        <mxCell id="l3x3Y-bJXq9WyvKC18MW-119" value="" style="shape=image;verticalLabelPosition=bottom;labelBackgroundColor=#ffffff;verticalAlign=top;aspect=fixed;imageAspect=0;image=https://www.underconsideration.com/brandnew/archives/cloudflare_logo.png;fontSize=16;fontStyle=1" vertex="1" parent="l3x3Y-bJXq9WyvKC18MW-126">
          <mxGeometry x="10" y="15" width="87.15" height="30" as="geometry" />
        </mxCell>
        <mxCell id="l3x3Y-bJXq9WyvKC18MW-124" value="&lt;p class=&quot;p1&quot; style=&quot;font-size: 16px;&quot;&gt;&lt;span class=&quot;s1&quot; style=&quot;font-size: 16px;&quot;&gt;foto.dsinf.net&lt;br style=&quot;font-size: 16px;&quot;&gt;blog.dsinf.net&lt;br style=&quot;font-size: 16px;&quot;&gt;&lt;/span&gt;&lt;span style=&quot;font-size: 16px;&quot;&gt;skowron.ski&lt;/span&gt;&lt;/p&gt;" style="text;whiteSpace=wrap;html=1;fontFamily=Ubuntu Mono;fontStyle=1;fontSize=16;align=center;" vertex="1" parent="l3x3Y-bJXq9WyvKC18MW-126">
          <mxGeometry x="96.5" y="80" width="127" height="100" as="geometry" />
        </mxCell>
        <mxCell id="l3x3Y-bJXq9WyvKC18MW-145" style="edgeStyle=orthogonalEdgeStyle;rounded=0;orthogonalLoop=1;jettySize=auto;html=1;fontFamily=Ubuntu;fontSize=16;startArrow=none;startFill=0;endArrow=classic;endFill=1;strokeWidth=3;fillColor=#d5e8d4;strokeColor=#82b366;exitX=0.25;exitY=1;exitDx=0;exitDy=0;fontStyle=1" edge="1" parent="1" source="l3x3Y-bJXq9WyvKC18MW-127" target="l3x3Y-bJXq9WyvKC18MW-104">
          <mxGeometry relative="1" as="geometry">
            <mxPoint x="780" y="240" as="sourcePoint" />
            <Array as="points">
              <mxPoint x="713" y="280" />
              <mxPoint x="780" y="280" />
              <mxPoint x="780" y="499" />
            </Array>
          </mxGeometry>
        </mxCell>
        <mxCell id="l3x3Y-bJXq9WyvKC18MW-148" value="failover&lt;br style=&quot;font-size: 16px;&quot;&gt;type - primary" style="edgeLabel;html=1;align=center;verticalAlign=middle;resizable=0;points=[];fontSize=16;fontFamily=Ubuntu;fontStyle=1;fontColor=#82B366;" vertex="1" connectable="0" parent="l3x3Y-bJXq9WyvKC18MW-145">
          <mxGeometry x="-0.0976" y="-2" relative="1" as="geometry">
            <mxPoint as="offset" />
          </mxGeometry>
        </mxCell>
        <mxCell id="l3x3Y-bJXq9WyvKC18MW-146" style="edgeStyle=orthogonalEdgeStyle;rounded=0;orthogonalLoop=1;jettySize=auto;html=1;fontFamily=Ubuntu;fontSize=16;startArrow=none;startFill=0;endArrow=classic;endFill=1;strokeWidth=3;fillColor=#f8cecc;strokeColor=#b85450;exitX=0.75;exitY=1;exitDx=0;exitDy=0;fontStyle=1" edge="1" parent="1" source="l3x3Y-bJXq9WyvKC18MW-127" target="l3x3Y-bJXq9WyvKC18MW-107">
          <mxGeometry relative="1" as="geometry">
            <mxPoint x="880" y="240" as="sourcePoint" />
            <Array as="points">
              <mxPoint x="917" y="280" />
              <mxPoint x="880" y="280" />
              <mxPoint x="880" y="499" />
            </Array>
          </mxGeometry>
        </mxCell>
        <mxCell id="l3x3Y-bJXq9WyvKC18MW-149" value="failover&lt;br style=&quot;font-size: 16px;&quot;&gt;type - secondary" style="edgeLabel;html=1;align=center;verticalAlign=middle;resizable=0;points=[];fontSize=16;fontFamily=Ubuntu;fontColor=#B85450;fontStyle=1" vertex="1" connectable="0" parent="l3x3Y-bJXq9WyvKC18MW-146">
          <mxGeometry x="-0.188" y="-3" relative="1" as="geometry">
            <mxPoint x="3" y="-48" as="offset" />
          </mxGeometry>
        </mxCell>
        <mxCell id="l3x3Y-bJXq9WyvKC18MW-147" style="edgeStyle=orthogonalEdgeStyle;rounded=0;orthogonalLoop=1;jettySize=auto;html=1;exitX=1;exitY=1;exitDx=0;exitDy=0;fontFamily=Ubuntu;fontSize=16;startArrow=classic;startFill=1;endArrow=classic;endFill=1;strokeWidth=3;fontStyle=1" edge="1" parent="1" source="l3x3Y-bJXq9WyvKC18MW-127" target="l3x3Y-bJXq9WyvKC18MW-107">
          <mxGeometry relative="1" as="geometry">
            <Array as="points">
              <mxPoint x="1020" y="440" />
              <mxPoint x="1020" y="440" />
            </Array>
          </mxGeometry>
        </mxCell>
        <mxCell id="l3x3Y-bJXq9WyvKC18MW-127" value="Rute53 A record" style="swimlane;fontFamily=Ubuntu;fontSize=16;strokeWidth=2;startSize=60;fillColor=#ffe6cc;strokeColor=#d79b00;fontStyle=1" vertex="1" parent="1">
          <mxGeometry x="610" y="40" width="410" height="200" as="geometry" />
        </mxCell>
        <mxCell id="l3x3Y-bJXq9WyvKC18MW-130" value="" style="points=[[0,0,0],[0.25,0,0],[0.5,0,0],[0.75,0,0],[1,0,0],[0,1,0],[0.25,1,0],[0.5,1,0],[0.75,1,0],[1,1,0],[0,0.25,0],[0,0.5,0],[0,0.75,0],[1,0.25,0],[1,0.5,0],[1,0.75,0]];outlineConnect=0;fontColor=#232F3E;gradientColor=#945DF2;gradientDirection=north;fillColor=#5A30B5;strokeColor=#ffffff;dashed=0;verticalLabelPosition=bottom;verticalAlign=top;align=center;html=1;fontSize=16;fontStyle=1;aspect=fixed;shape=mxgraph.aws4.resourceIcon;resIcon=mxgraph.aws4.route_53;fontFamily=Ubuntu;" vertex="1" parent="l3x3Y-bJXq9WyvKC18MW-127">
          <mxGeometry x="16" y="10" width="40" height="40" as="geometry" />
        </mxCell>
        <mxCell id="l3x3Y-bJXq9WyvKC18MW-122" value="&lt;span style=&quot;color: rgb(35, 47, 62); font-family: ubuntu; font-size: 16px; font-style: normal; letter-spacing: normal; text-indent: 0px; text-transform: none; word-spacing: 0px; background-color: rgb(248, 249, 250); display: inline; float: none;&quot;&gt;type - failover - HTTP health-checks&lt;/span&gt;" style="text;whiteSpace=wrap;html=1;fontSize=16;fontFamily=Ubuntu;align=center;fontStyle=1" vertex="1" parent="l3x3Y-bJXq9WyvKC18MW-127">
          <mxGeometry x="114" y="70" width="212" height="60" as="geometry" />
        </mxCell>
        <mxCell id="l3x3Y-bJXq9WyvKC18MW-121" value="&lt;p class=&quot;p1&quot; style=&quot;font-size: 16px;&quot;&gt;&lt;span class=&quot;s1&quot; style=&quot;font-size: 16px;&quot;&gt;webd.route53.skowronski.cloud&lt;/span&gt;&lt;/p&gt;" style="text;whiteSpace=wrap;html=1;fontFamily=Ubuntu Mono;fontStyle=1;fontSize=16;align=center;" vertex="1" parent="l3x3Y-bJXq9WyvKC18MW-127">
          <mxGeometry x="100" y="110" width="240" height="50" as="geometry" />
        </mxCell>
        <mxCell id="l3x3Y-bJXq9WyvKC18MW-6" value="rlyeh&#xa;dedicated server at Hetzner FSN" style="swimlane;fillColor=#dae8fc;strokeColor=#6c8ebf;strokeWidth=5;startSize=80;fontFamily=Ubuntu;fontSize=16;fontStyle=1" vertex="1" parent="1">
          <mxGeometry x="60" y="360" width="640" height="600" as="geometry">
            <mxRectangle x="200" y="250" width="260" height="23" as="alternateBounds" />
          </mxGeometry>
        </mxCell>
        <mxCell id="l3x3Y-bJXq9WyvKC18MW-5" value="" style="shape=mxgraph.cisco.servers.standard_host;html=1;pointerEvents=1;dashed=0;fillColor=#036897;strokeColor=#ffffff;strokeWidth=2;verticalLabelPosition=bottom;verticalAlign=top;align=center;outlineConnect=0;fontSize=16;fontStyle=1" vertex="1" parent="l3x3Y-bJXq9WyvKC18MW-6">
          <mxGeometry x="20" y="10" width="43" height="62" as="geometry" />
        </mxCell>
        <mxCell id="l3x3Y-bJXq9WyvKC18MW-11" value="webd01&#xa;LXD container" style="swimlane;fillColor=#e1d5e7;strokeColor=#9673a6;strokeWidth=5;startSize=80;fontFamily=Ubuntu;fontSize=16;fontStyle=1" vertex="1" parent="l3x3Y-bJXq9WyvKC18MW-6">
          <mxGeometry x="40" y="120" width="280" height="200" as="geometry">
            <mxRectangle x="200" y="250" width="260" height="23" as="alternateBounds" />
          </mxGeometry>
        </mxCell>
        <mxCell id="l3x3Y-bJXq9WyvKC18MW-13" value="nginx+php" style="shape=mxgraph.cisco.servers.www_server;html=1;pointerEvents=1;dashed=0;fillColor=#036897;strokeColor=#ffffff;strokeWidth=2;verticalLabelPosition=bottom;verticalAlign=top;align=center;outlineConnect=0;fontFamily=Ubuntu;fontStyle=3;fontSize=16;" vertex="1" parent="l3x3Y-bJXq9WyvKC18MW-11">
          <mxGeometry x="160" y="90" width="66" height="67" as="geometry" />
        </mxCell>
        <mxCell id="l3x3Y-bJXq9WyvKC18MW-9" value="" style="html=1;dashed=0;whitespace=wrap;fillColor=#2875E2;strokeColor=#ffffff;points=[[0.005,0.63,0],[0.1,0.2,0],[0.9,0.2,0],[0.5,0,0],[0.995,0.63,0],[0.72,0.99,0],[0.5,1,0],[0.28,0.99,0]];shape=mxgraph.kubernetes.icon;prIcon=pod;fontFamily=Ubuntu;fontSize=16;fontStyle=1" vertex="1" parent="l3x3Y-bJXq9WyvKC18MW-11">
          <mxGeometry x="13" y="16" width="50" height="48" as="geometry" />
        </mxCell>
        <mxCell id="l3x3Y-bJXq9WyvKC18MW-38" value="unison&lt;br style=&quot;font-size: 16px;&quot;&gt;service" style="shape=mxgraph.cisco.servers.fileserver;html=1;pointerEvents=1;dashed=0;fillColor=#036897;strokeColor=#ffffff;strokeWidth=2;verticalLabelPosition=bottom;verticalAlign=top;align=center;outlineConnect=0;fontFamily=Ubuntu;fontStyle=3;fontSize=16;" vertex="1" parent="l3x3Y-bJXq9WyvKC18MW-11">
          <mxGeometry x="40" y="90" width="43" height="62" as="geometry" />
        </mxCell>
        <mxCell id="l3x3Y-bJXq9WyvKC18MW-23" value="webd02 &#xa;LXD container" style="swimlane;fillColor=#e1d5e7;strokeColor=#9673a6;strokeWidth=5;startSize=80;fontFamily=Ubuntu;fontSize=16;fontStyle=1" vertex="1" parent="l3x3Y-bJXq9WyvKC18MW-6">
          <mxGeometry x="40" y="360" width="280" height="200" as="geometry">
            <mxRectangle x="200" y="250" width="260" height="23" as="alternateBounds" />
          </mxGeometry>
        </mxCell>
        <mxCell id="l3x3Y-bJXq9WyvKC18MW-24" value="nginx+php" style="shape=mxgraph.cisco.servers.www_server;html=1;pointerEvents=1;dashed=0;fillColor=#036897;strokeColor=#ffffff;strokeWidth=2;verticalLabelPosition=bottom;verticalAlign=top;align=center;outlineConnect=0;fontFamily=Ubuntu;fontStyle=3;fontSize=16;" vertex="1" parent="l3x3Y-bJXq9WyvKC18MW-23">
          <mxGeometry x="160" y="90" width="66" height="67" as="geometry" />
        </mxCell>
        <mxCell id="l3x3Y-bJXq9WyvKC18MW-25" value="" style="html=1;dashed=0;whitespace=wrap;fillColor=#2875E2;strokeColor=#ffffff;points=[[0.005,0.63,0],[0.1,0.2,0],[0.9,0.2,0],[0.5,0,0],[0.995,0.63,0],[0.72,0.99,0],[0.5,1,0],[0.28,0.99,0]];shape=mxgraph.kubernetes.icon;prIcon=pod;fontFamily=Ubuntu;fontSize=16;fontStyle=1" vertex="1" parent="l3x3Y-bJXq9WyvKC18MW-23">
          <mxGeometry x="13" y="16" width="50" height="48" as="geometry" />
        </mxCell>
        <mxCell id="l3x3Y-bJXq9WyvKC18MW-39" value="unison&lt;br style=&quot;font-size: 16px;&quot;&gt;service" style="shape=mxgraph.cisco.servers.fileserver;html=1;pointerEvents=1;dashed=0;fillColor=#036897;strokeColor=#ffffff;strokeWidth=2;verticalLabelPosition=bottom;verticalAlign=top;align=center;outlineConnect=0;fontFamily=Ubuntu;fontStyle=3;fontSize=16;" vertex="1" parent="l3x3Y-bJXq9WyvKC18MW-23">
          <mxGeometry x="40" y="90" width="43" height="62" as="geometry" />
        </mxCell>
        <mxCell id="l3x3Y-bJXq9WyvKC18MW-27" style="edgeStyle=orthogonalEdgeStyle;rounded=0;orthogonalLoop=1;jettySize=auto;html=1;exitX=0.855;exitY=0.855;exitDx=0;exitDy=0;exitPerimeter=0;entryX=1;entryY=0.5;entryDx=0;entryDy=0;fontFamily=Ubuntu;strokeWidth=3;startArrow=classic;startFill=1;entryPerimeter=0;fontSize=16;fontStyle=1" edge="1" parent="l3x3Y-bJXq9WyvKC18MW-6" source="l3x3Y-bJXq9WyvKC18MW-10" target="l3x3Y-bJXq9WyvKC18MW-13">
          <mxGeometry relative="1" as="geometry">
            <Array as="points">
              <mxPoint x="340" y="305" />
              <mxPoint x="340" y="244" />
            </Array>
          </mxGeometry>
        </mxCell>
        <mxCell id="l3x3Y-bJXq9WyvKC18MW-29" value="healthcheck&lt;br&gt;for PHP and DB" style="edgeLabel;html=1;align=center;verticalAlign=middle;resizable=0;points=[];fontFamily=Ubuntu;fontSize=16;fontStyle=1" vertex="1" connectable="0" parent="l3x3Y-bJXq9WyvKC18MW-27">
          <mxGeometry x="0.2161" relative="1" as="geometry">
            <mxPoint x="60" y="13" as="offset" />
          </mxGeometry>
        </mxCell>
        <mxCell id="l3x3Y-bJXq9WyvKC18MW-30" value="&lt;font color=&quot;#82b366&quot;&gt;preferred route&lt;/font&gt;" style="edgeStyle=orthogonalEdgeStyle;rounded=0;orthogonalLoop=1;jettySize=auto;html=1;exitX=0.5;exitY=1;exitDx=0;exitDy=0;exitPerimeter=0;entryX=1;entryY=0;entryDx=0;entryDy=0;fontFamily=Ubuntu;strokeWidth=3;fillColor=#d5e8d4;strokeColor=#82b366;entryPerimeter=0;fontSize=16;fontStyle=1" edge="1" parent="l3x3Y-bJXq9WyvKC18MW-6" source="l3x3Y-bJXq9WyvKC18MW-10" target="l3x3Y-bJXq9WyvKC18MW-13">
          <mxGeometry x="0.0949" relative="1" as="geometry">
            <Array as="points">
              <mxPoint x="470" y="210" />
            </Array>
            <mxPoint as="offset" />
          </mxGeometry>
        </mxCell>
        <mxCell id="l3x3Y-bJXq9WyvKC18MW-10" value="" style="fillColor=#28A8E0;verticalLabelPosition=bottom;html=1;strokeColor=#ffffff;verticalAlign=top;align=center;points=[[0.145,0.145,0],[0.5,0,0],[0.855,0.145,0],[1,0.5,0],[0.855,0.855,0],[0.5,1,0],[0.145,0.855,0],[0,0.5,0]];pointerEvents=1;shape=mxgraph.cisco_safe.compositeIcon;bgIcon=ellipse;resIcon=mxgraph.cisco_safe.capability.load_balancer;fontFamily=Ubuntu;rotation=-180;fontSize=16;fontStyle=1" vertex="1" parent="l3x3Y-bJXq9WyvKC18MW-6">
          <mxGeometry x="420" y="290" width="100" height="100" as="geometry" />
        </mxCell>
        <mxCell id="l3x3Y-bJXq9WyvKC18MW-26" value="haproxy&lt;br style=&quot;font-size: 16px;&quot;&gt;service" style="text;html=1;strokeColor=none;fillColor=none;align=center;verticalAlign=middle;whiteSpace=wrap;rounded=0;fontFamily=Ubuntu;fontStyle=3;fontSize=16;" vertex="1" parent="l3x3Y-bJXq9WyvKC18MW-6">
          <mxGeometry x="360" y="330" width="40" height="20" as="geometry" />
        </mxCell>
        <mxCell id="l3x3Y-bJXq9WyvKC18MW-32" style="edgeStyle=orthogonalEdgeStyle;rounded=0;orthogonalLoop=1;jettySize=auto;html=1;exitX=0.5;exitY=0;exitDx=0;exitDy=0;exitPerimeter=0;fontFamily=Ubuntu;strokeWidth=3;fillColor=#f8cecc;strokeColor=#b85450;entryX=1;entryY=0.5;entryDx=0;entryDy=0;entryPerimeter=0;fontSize=16;fontStyle=1" edge="1" parent="l3x3Y-bJXq9WyvKC18MW-6" source="l3x3Y-bJXq9WyvKC18MW-10" target="l3x3Y-bJXq9WyvKC18MW-24">
          <mxGeometry relative="1" as="geometry">
            <mxPoint x="320" y="520" as="targetPoint" />
            <Array as="points">
              <mxPoint x="470" y="484" />
            </Array>
          </mxGeometry>
        </mxCell>
        <mxCell id="l3x3Y-bJXq9WyvKC18MW-33" value="backup route" style="edgeLabel;html=1;align=center;verticalAlign=middle;resizable=0;points=[];fontFamily=Ubuntu;fontColor=#B85450;fontSize=16;fontStyle=1" vertex="1" connectable="0" parent="l3x3Y-bJXq9WyvKC18MW-32">
          <mxGeometry x="0.3643" y="-2" relative="1" as="geometry">
            <mxPoint x="30" y="-1" as="offset" />
          </mxGeometry>
        </mxCell>
        <mxCell id="l3x3Y-bJXq9WyvKC18MW-104" value="&lt;p class=&quot;p1&quot; style=&quot;margin: 0px; font-stretch: normal; line-height: normal; font-size: 16px;&quot;&gt;&lt;br style=&quot;font-size: 16px;&quot;&gt;&lt;/p&gt;" style="pointerEvents=1;shadow=0;dashed=0;html=1;strokeColor=none;fillColor=#505050;labelPosition=center;verticalLabelPosition=bottom;verticalAlign=top;outlineConnect=0;align=center;shape=mxgraph.office.devices.nic;fontFamily=Ubuntu;fontSize=16;fontStyle=1" vertex="1" parent="l3x3Y-bJXq9WyvKC18MW-6">
          <mxGeometry x="520" y="120" width="57" height="38" as="geometry" />
        </mxCell>
        <mxCell id="l3x3Y-bJXq9WyvKC18MW-132" value="&lt;meta charset=&quot;utf-8&quot; style=&quot;font-size: 16px;&quot;&gt;&lt;span style=&quot;color: rgb(0, 0, 0); font-family: ubuntu; font-size: 16px; font-style: normal; letter-spacing: normal; text-align: center; text-indent: 0px; text-transform: none; word-spacing: 0px; background-color: rgb(248, 249, 250);&quot;&gt;&lt;font face=&quot;Ubuntu Mono&quot; style=&quot;font-size: 16px;&quot;&gt;144.76.27.245&lt;/font&gt;&lt;/span&gt;" style="text;html=1;strokeColor=none;fillColor=none;align=center;verticalAlign=middle;whiteSpace=wrap;rounded=0;fontFamily=Ubuntu;fontSize=16;fontStyle=1" vertex="1" parent="l3x3Y-bJXq9WyvKC18MW-6">
          <mxGeometry x="440" y="129" width="40" height="20" as="geometry" />
        </mxCell>
        <mxCell id="l3x3Y-bJXq9WyvKC18MW-138" style="edgeStyle=orthogonalEdgeStyle;rounded=0;orthogonalLoop=1;jettySize=auto;html=1;entryX=0;entryY=0.5;entryDx=0;entryDy=0;entryPerimeter=0;fontFamily=Ubuntu;strokeWidth=3;fillColor=#d5e8d4;strokeColor=#82b366;fontSize=16;fontStyle=1" edge="1" parent="l3x3Y-bJXq9WyvKC18MW-6" source="l3x3Y-bJXq9WyvKC18MW-104" target="l3x3Y-bJXq9WyvKC18MW-10">
          <mxGeometry relative="1" as="geometry">
            <Array as="points">
              <mxPoint x="560" y="340" />
            </Array>
            <mxPoint x="789" y="167.99999999999977" as="sourcePoint" />
            <mxPoint x="1034.58" y="273.5" as="targetPoint" />
          </mxGeometry>
        </mxCell>
        <mxCell id="l3x3Y-bJXq9WyvKC18MW-139" value="NAT" style="edgeLabel;html=1;align=center;verticalAlign=middle;resizable=0;points=[];fontFamily=Ubuntu;fontSize=16;fontStyle=1;fontColor=#82B366;" vertex="1" connectable="0" parent="l3x3Y-bJXq9WyvKC18MW-138">
          <mxGeometry x="0.0714" y="-2" relative="1" as="geometry">
            <mxPoint x="2" y="-13" as="offset" />
          </mxGeometry>
        </mxCell>
        <mxCell id="l3x3Y-bJXq9WyvKC18MW-150" style="edgeStyle=orthogonalEdgeStyle;rounded=0;orthogonalLoop=1;jettySize=auto;html=1;exitX=0;exitY=0.5;exitDx=0;exitDy=0;exitPerimeter=0;fontFamily=Ubuntu;fontSize=16;startArrow=none;startFill=0;endArrow=classic;endFill=1;strokeWidth=3;fontStyle=1" edge="1" parent="l3x3Y-bJXq9WyvKC18MW-6" source="l3x3Y-bJXq9WyvKC18MW-38" target="l3x3Y-bJXq9WyvKC18MW-39">
          <mxGeometry relative="1" as="geometry">
            <Array as="points">
              <mxPoint x="20" y="241" />
              <mxPoint x="20" y="490" />
            </Array>
          </mxGeometry>
        </mxCell>
        <mxCell id="l3x3Y-bJXq9WyvKC18MW-152" value="sftp" style="edgeLabel;html=1;align=center;verticalAlign=middle;resizable=0;points=[];fontSize=16;fontFamily=Ubuntu;fontStyle=1" vertex="1" connectable="0" parent="l3x3Y-bJXq9WyvKC18MW-150">
          <mxGeometry x="-0.2058" y="-1" relative="1" as="geometry">
            <mxPoint x="1" y="12" as="offset" />
          </mxGeometry>
        </mxCell>
        <mxCell id="l3x3Y-bJXq9WyvKC18MW-28" value="healthcheck&lt;br&gt;for PHP and DB" style="edgeStyle=orthogonalEdgeStyle;rounded=0;orthogonalLoop=1;jettySize=auto;html=1;exitX=0.855;exitY=0.145;exitDx=0;exitDy=0;exitPerimeter=0;fontFamily=Ubuntu;strokeWidth=3;endArrow=classic;endFill=1;startArrow=classic;startFill=1;entryX=1;entryY=0;entryDx=0;entryDy=0;entryPerimeter=0;fontSize=16;fontStyle=1" edge="1" parent="l3x3Y-bJXq9WyvKC18MW-6" source="l3x3Y-bJXq9WyvKC18MW-10" target="l3x3Y-bJXq9WyvKC18MW-24">
          <mxGeometry x="-0.716" y="34" relative="1" as="geometry">
            <mxPoint x="320" y="470" as="targetPoint" />
            <Array as="points">
              <mxPoint x="340" y="376" />
              <mxPoint x="340" y="450" />
            </Array>
            <mxPoint as="offset" />
          </mxGeometry>
        </mxCell>
        <mxCell id="l3x3Y-bJXq9WyvKC18MW-141" style="edgeStyle=orthogonalEdgeStyle;rounded=0;orthogonalLoop=1;jettySize=auto;html=1;exitX=0;exitY=1;exitDx=0;exitDy=0;fontFamily=Ubuntu;fontSize=16;startArrow=classic;startFill=1;endArrow=classic;endFill=1;strokeWidth=3;fontStyle=1" edge="1" parent="1" source="l3x3Y-bJXq9WyvKC18MW-127" target="l3x3Y-bJXq9WyvKC18MW-104">
          <mxGeometry relative="1" as="geometry">
            <Array as="points">
              <mxPoint x="609" y="240" />
            </Array>
          </mxGeometry>
        </mxCell>
        <mxCell id="l3x3Y-bJXq9WyvKC18MW-143" value="HTTP endpoint&lt;br style=&quot;font-size: 16px;&quot;&gt;health-check" style="edgeLabel;html=1;align=center;verticalAlign=middle;resizable=0;points=[];fontSize=16;fontFamily=Ubuntu;fontStyle=1" vertex="1" connectable="0" parent="l3x3Y-bJXq9WyvKC18MW-141">
          <mxGeometry x="-0.6952" y="3" relative="1" as="geometry">
            <mxPoint x="-3" y="23" as="offset" />
          </mxGeometry>
        </mxCell>
        <mxCell id="l3x3Y-bJXq9WyvKC18MW-144" value="HTTP endpoint&lt;br style=&quot;font-size: 16px;&quot;&gt;health-check" style="edgeLabel;html=1;align=center;verticalAlign=middle;resizable=0;points=[];fontSize=16;fontFamily=Ubuntu;fontStyle=1" vertex="1" connectable="0" parent="1">
          <mxGeometry x="1020" y="300" as="geometry" />
        </mxCell>
        <mxCell id="l3x3Y-bJXq9WyvKC18MW-151" style="edgeStyle=orthogonalEdgeStyle;rounded=0;orthogonalLoop=1;jettySize=auto;html=1;exitX=0;exitY=0.5;exitDx=0;exitDy=0;exitPerimeter=0;entryX=1;entryY=0.5;entryDx=0;entryDy=0;entryPerimeter=0;fontFamily=Ubuntu;fontSize=16;startArrow=none;startFill=0;endArrow=classic;endFill=1;strokeWidth=3;fontStyle=1" edge="1" parent="1" source="l3x3Y-bJXq9WyvKC18MW-38" target="l3x3Y-bJXq9WyvKC18MW-69">
          <mxGeometry relative="1" as="geometry">
            <Array as="points">
              <mxPoint x="40" y="601" />
              <mxPoint x="40" y="980" />
              <mxPoint x="1580" y="980" />
              <mxPoint x="1580" y="601" />
            </Array>
          </mxGeometry>
        </mxCell>
      </root>
    </mxGraphModel>
  </diagram>
</mxfile>
